<svg width="533" height="260" xmlns="http://www.w3.org/2000/svg" xmlns:xlink="http://www.w3.org/1999/xlink" overflow="hidden"><defs><filter id="fx0" x="-10%" y="-10%" width="120%" height="120%" filterUnits="userSpaceOnUse" primitiveUnits="userSpaceOnUse"><feComponentTransfer color-interpolation-filters="sRGB"><feFuncR type="discrete" tableValues="0 0"/><feFuncG type="discrete" tableValues="0 0"/><feFuncB type="discrete" tableValues="0 0"/><feFuncA type="linear" slope="0.231373" intercept="0"/></feComponentTransfer><feGaussianBlur stdDeviation="5.36755 5.36755"/></filter><filter id="fx1" x="-10%" y="-10%" width="120%" height="120%" filterUnits="userSpaceOnUse" primitiveUnits="userSpaceOnUse"><feComponentTransfer color-interpolation-filters="sRGB"><feFuncR type="discrete" tableValues="0 0"/><feFuncG type="discrete" tableValues="0 0"/><feFuncB type="discrete" tableValues="0 0"/><feFuncA type="linear" slope="0.231373" intercept="0"/></feComponentTransfer><feGaussianBlur stdDeviation="5.3629 5.37256"/></filter><clipPath id="clip2"><rect x="1030" y="263" width="533" height="260"/></clipPath><clipPath id="clip3"><rect x="0.501892" y="0.501907" width="135.011" height="132"/></clipPath><clipPath id="clip4"><rect x="0" y="0" width="132" height="132"/></clipPath><clipPath id="clip5"><rect x="16" y="16" width="99" height="99"/></clipPath><clipPath id="clip6"><rect x="16" y="16" width="99" height="99"/></clipPath><clipPath id="clip7"><rect x="6" y="-10" width="277" height="149"/></clipPath><linearGradient x1="121.287" y1="-38.5523" x2="-50.9998" y2="133.734" gradientUnits="userSpaceOnUse" spreadMethod="pad" id="fill8"><stop offset="0" stop-color="#A730C4" stop-opacity="0.93"/><stop offset="0.573" stop-color="#725EFF" stop-opacity="0.93"/><stop offset="1" stop-color="#2EB8EC" stop-opacity="0.93"/></linearGradient><clipPath id="clip9"><rect x="1052" y="286" width="197" height="195"/></clipPath><clipPath id="clip10"><rect x="1052" y="286" width="197" height="195"/></clipPath><clipPath id="clip11"><rect x="1032" y="232" width="551" height="297"/></clipPath><linearGradient x1="241.655" y1="-76.8125" x2="-101.613" y2="266.456" gradientUnits="userSpaceOnUse" spreadMethod="pad" id="fill12"><stop offset="0" stop-color="#A730C4" stop-opacity="0.93"/><stop offset="0.573" stop-color="#725EFF" stop-opacity="0.93"/><stop offset="1" stop-color="#2EB8EC" stop-opacity="0.93"/></linearGradient><clipPath id="clip13"><rect x="-6.5191" y="-6.53081" width="181.029" height="117.052"/></clipPath><clipPath id="clip14"><rect x="0" y="0" width="171" height="106"/></clipPath><clipPath id="clip15"><rect x="16" y="16" width="138" height="73"/></clipPath><clipPath id="clip16"><rect x="16" y="16" width="138" height="73"/></clipPath><clipPath id="clip17"><rect x="1248" y="313" width="274" height="144"/></clipPath><clipPath id="clip18"><rect x="1248" y="313" width="274" height="144"/></clipPath></defs><g clip-path="url(#clip2)" transform="translate(-1030 -263)"><g clip-path="url(#clip3)" filter="url(#fx0)" transform="matrix(1.99242 0 0 1.99242 1029 262)"><g clip-path="url(#clip4)" transform="translate(-1.13687e-13 0)"><g clip-path="url(#clip5)" transform="matrix(1 0 0 1 -1.57356e-05 8.58307e-06)"><g clip-path="url(#clip6)" transform="matrix(1 0 0 1 -1.57356e-05 8.58307e-06)"><g clip-path="url(#clip7)" transform="matrix(1 0 0 1 -1.57356e-05 8.58307e-06)"><path d="M4.84375-32.832C6.95312-31.2956 9.07552-29.681 11.2109-27.9883L7.61719-24.082C5.74219-25.931 3.73698-27.7148 1.60156-29.4336ZM12.9297-31.6602 35.5859-31.6602 35.5859-14.707 12.9297-14.707ZM30.7812-27.5977 17.7344-27.5977 17.7344-25.0195 30.7812-25.0195ZM30.7812-18.6914 30.7812-21.2695 17.7344-21.2695 17.7344-18.6914ZM3.75-22.6367C6.19792-20.8138 8.25521-19.1732 9.92188-17.7148L6.40625-13.4961C4.32292-15.4753 2.36979-17.2852 0.546875-18.9258ZM8.32031-0.488281 11.2891-0.488281 11.2891-12.4414 37.2656-12.4414 37.2656-0.488281 39.5312-0.488281 39.5312 3.65234 8.32031 3.65234ZM22.8516-0.488281 25.7031-0.488281 25.7031-8.37891 22.8516-8.37891ZM16.1328-0.488281 18.9844-0.488281 18.9844-8.37891 16.1328-8.37891ZM32.4219-8.37891 29.5703-8.37891 29.5703-0.488281 32.4219-0.488281ZM4.375-11.6211C6.11979-10.944 7.76042-10.3711 9.29688-9.90234L6.17188 5.41016C4.375 4.78516 2.63021 4.29036 0.9375 3.92578 2.23958-1.07422 3.38542-6.25651 4.375-11.6211ZM75.3516-10.6055 75.3516-6.38672C73.2682-3.99089 71.1849-2.0638 69.1016-0.605469 71.9661-0.0585938 75.4036 0.279948 79.4141 0.410156 78.6328 1.92057 77.8646 3.49609 77.1094 5.13672 71.3542 4.43359 66.7318 3.45703 63.2422 2.20703 59.5182 3.45703 54.8828 4.53776 49.3359 5.44922 48.6849 3.99089 47.8385 2.54557 46.7969 1.11328 51.0156 0.904948 54.7656 0.371094 58.0469-0.488281 55.8854-2.05078 53.9062-4.01693 52.1094-6.38672L49.6094-6.38672 49.6094-10.6055ZM48.2812-15.4883C48.3333-5.72266 47.0312 1.28255 44.375 5.52734 42.9427 4.14714 41.5234 2.92318 40.1172 1.85547 42.3307-2.28516 43.3854-8.30078 43.2812-16.1914L43.2812-29.8242 58.8281-29.8242C58.5417-30.5794 58.1641-31.4909 57.6953-32.5586L64.1797-33.4961C64.6484-32.2982 65.1172-31.0742 65.5859-29.8242L79.1016-29.8242 79.1016-25.4492 48.2812-25.4492ZM49.1406-23.0273 53.3984-23.0273 53.3984-24.668 58.3984-24.668 58.3984-23.0273 68.0859-23.0273 68.0859-24.668 73.0859-24.668 73.0859-23.0273 78.3984-23.0273 78.3984-18.8086 73.0859-18.8086 73.0859-12.4414 53.3984-12.4414 53.3984-18.8086 49.1406-18.8086ZM63.4766-2.36328C65.8464-3.45703 67.8646-4.79818 69.5312-6.38672L57.6562-6.38672C59.3229-4.72005 61.263-3.37891 63.4766-2.36328ZM68.0859-16.4258 68.0859-18.8086 58.3984-18.8086 58.3984-16.4258Z" fill="#F9F9F9" fill-opacity="0.93" transform="matrix(1.72488 0 0 1.72633 118.688 88)"/><path d="M70.7199 0C80.2461-6.12799e-15 87.9687 7.72253 87.9687 17.2488L87.9687 70.7199C87.9687 80.2461 80.2461 87.9687 70.7199 87.9687L17.2488 87.9687C7.72253 87.9687 0 80.2461 0 70.7199L0 17.2488C-3.064e-15 7.72253 7.72253-3.064e-15 17.2488-6.12799e-15Z" fill="url(#fill8)" transform="matrix(1 0 0 1.00084 22.0945 21.0843)"/><path d="M4091.04 892.991 4091.04 876.213 4069.09 857.867 4046.27 876.213 4046.27 909.772 4091.04 909.772" stroke="#FFFFFF" stroke-width="8.62438" stroke-linecap="square" stroke-linejoin="round" fill="none" transform="matrix(1 0 0 1.00084 -4001.35 -821.259)"/><path d="M6.1348 4.11243e-06C9.52295 4.11243e-06 12.2696 2.74664 12.2696 6.1348 12.2696 9.52295 9.52295 12.2696 6.1348 12.2696 2.74664 12.2696 4.11243e-06 9.52295 4.11243e-06 6.1348 4.11243e-06 2.74664 2.74664 4.11243e-06 6.1348 4.11243e-06Z" fill="#FFFFFF" fill-opacity="0.93" transform="matrix(1 0 0 1.00084 39.3433 33.1531)"/></g></g></g></g></g><g clip-path="url(#clip9)"><g clip-path="url(#clip10)"><g clip-path="url(#clip11)"><text fill="#F9F9F9" fill-opacity="0.93" font-family="Microsoft YaHei,Microsoft YaHei_MSFontService,sans-serif" font-weight="700" font-size="40" transform="matrix(3.43669 0 0 3.43958 1255.75 428)">温度</text><path d="M140.904 0C159.884-1.22096e-14 175.271 15.3866 175.271 34.3669L175.271 140.904C175.271 159.884 159.884 175.271 140.904 175.271L34.3669 175.271C15.3866 175.271 0 159.884 0 140.904L0 34.3669C-6.10478e-15 15.3866 15.3866-6.10478e-15 34.3669-1.22096e-14Z" fill="url(#fill12)" transform="matrix(1 0 0 1.00084 1063.3 294.286)"/><path d="M8151.1 1779.22 8151.1 1745.79 8107.35 1709.24 8061.88 1745.79 8061.88 1812.65 8151.1 1812.65" stroke="#FFFFFF" stroke-width="17.1834" stroke-linecap="square" stroke-linejoin="round" fill="none" transform="matrix(1 0 0 1.00084 -6953.11 -1384.02)"/><path d="M12.2231 8.19371e-06C18.9738 8.19371e-06 24.4462 5.47247 24.4462 12.2231 24.4462 18.9738 18.9738 24.4462 12.2231 24.4462 5.47247 24.4462 8.19371e-06 18.9738 8.19371e-06 12.2231 8.19371e-06 5.47247 5.47247 8.19371e-06 12.2231 8.19371e-06Z" fill="#FFFFFF" fill-opacity="0.93" transform="matrix(1 0 0 1.00084 1097.67 318.332)"/></g></g></g><g clip-path="url(#clip13)" filter="url(#fx1)" transform="matrix(1.99415 0 0 1.99057 1224 290)"><g clip-path="url(#clip14)" transform="matrix(1 0 0 1 0 -2.84217e-14)"><g clip-path="url(#clip15)" transform="matrix(1 0 0 1 -1.90735e-05 3.45707e-06)"><g clip-path="url(#clip16)" transform="matrix(1 0 0 1 -1.90735e-05 3.45707e-06)"><path d="M4.84375-32.832C6.95312-31.2956 9.07552-29.681 11.2109-27.9883L7.61719-24.082C5.74219-25.931 3.73698-27.7148 1.60156-29.4336ZM12.9297-31.6602 35.5859-31.6602 35.5859-14.707 12.9297-14.707ZM30.7812-27.5977 17.7344-27.5977 17.7344-25.0195 30.7812-25.0195ZM30.7812-18.6914 30.7812-21.2695 17.7344-21.2695 17.7344-18.6914ZM3.75-22.6367C6.19792-20.8138 8.25521-19.1732 9.92188-17.7148L6.40625-13.4961C4.32292-15.4753 2.36979-17.2852 0.546875-18.9258ZM8.32031-0.488281 11.2891-0.488281 11.2891-12.4414 37.2656-12.4414 37.2656-0.488281 39.5312-0.488281 39.5312 3.65234 8.32031 3.65234ZM22.8516-0.488281 25.7031-0.488281 25.7031-8.37891 22.8516-8.37891ZM16.1328-0.488281 18.9844-0.488281 18.9844-8.37891 16.1328-8.37891ZM32.4219-8.37891 29.5703-8.37891 29.5703-0.488281 32.4219-0.488281ZM4.375-11.6211C6.11979-10.944 7.76042-10.3711 9.29688-9.90234L6.17188 5.41016C4.375 4.78516 2.63021 4.29036 0.9375 3.92578 2.23958-1.07422 3.38542-6.25651 4.375-11.6211ZM75.3516-10.6055 75.3516-6.38672C73.2682-3.99089 71.1849-2.0638 69.1016-0.605469 71.9661-0.0585938 75.4036 0.279948 79.4141 0.410156 78.6328 1.92057 77.8646 3.49609 77.1094 5.13672 71.3542 4.43359 66.7318 3.45703 63.2422 2.20703 59.5182 3.45703 54.8828 4.53776 49.3359 5.44922 48.6849 3.99089 47.8385 2.54557 46.7969 1.11328 51.0156 0.904948 54.7656 0.371094 58.0469-0.488281 55.8854-2.05078 53.9062-4.01693 52.1094-6.38672L49.6094-6.38672 49.6094-10.6055ZM48.2812-15.4883C48.3333-5.72266 47.0312 1.28255 44.375 5.52734 42.9427 4.14714 41.5234 2.92318 40.1172 1.85547 42.3307-2.28516 43.3854-8.30078 43.2812-16.1914L43.2812-29.8242 58.8281-29.8242C58.5417-30.5794 58.1641-31.4909 57.6953-32.5586L64.1797-33.4961C64.6484-32.2982 65.1172-31.0742 65.5859-29.8242L79.1016-29.8242 79.1016-25.4492 48.2812-25.4492ZM49.1406-23.0273 53.3984-23.0273 53.3984-24.668 58.3984-24.668 58.3984-23.0273 68.0859-23.0273 68.0859-24.668 73.0859-24.668 73.0859-23.0273 78.3984-23.0273 78.3984-18.8086 73.0859-18.8086 73.0859-12.4414 53.3984-12.4414 53.3984-18.8086 49.1406-18.8086ZM63.4766-2.36328C65.8464-3.45703 67.8646-4.79818 69.5312-6.38672L57.6562-6.38672C59.3229-4.72005 61.263-3.37891 63.4766-2.36328ZM68.0859-16.4258 68.0859-18.8086 58.3984-18.8086 58.3984-16.4258Z" fill="#000000" fill-opacity="0.82" transform="matrix(1.72485 0 0 1.72794 14.8852 75)"/><path d="M70.7187 0C80.2447-6.12788e-15 87.9671 7.72239 87.9671 17.2485L87.9671 70.7187C87.9671 80.2447 80.2447 87.9671 70.7187 87.9671L17.2485 87.9671C7.72239 87.9671 0 80.2447 0 70.7187L0 17.2485C-3.06394e-15 7.72239 7.72239-3.06394e-15 17.2485-6.12788e-15Z" fill="#000000" fill-opacity="0.82" transform="matrix(1 0 0 1.00179 -81.7061 7.55136)"/><path d="M4090.97 892.975 4090.97 876.197 4069.01 857.852 4046.19 876.197 4046.19 909.756 4090.97 909.756" stroke="#FFFFFF" stroke-width="8.62423" stroke-linecap="square" stroke-linejoin="round" fill="#000000" fill-opacity="0.82" transform="matrix(1 0 0 1.00179 -4105.08 -835.576)"/><path d="M6.13527 0C9.5237 0 12.2705 2.74685 12.2705 6.13527 12.2705 9.5237 9.5237 12.2705 6.13527 12.2705 2.74685 12.2705-1.34885e-07 9.5237-1.34885e-07 6.13527-1.34885e-07 2.74685 2.74685-1.34885e-07 6.13527-1.34885e-07Z" fill="#000000" fill-opacity="0.82" transform="matrix(1 0 0 1.00179 -64.4577 19.6313)"/><path d="M6.13469 4.11236e-06C9.52278 4.11236e-06 12.2694 2.74659 12.2694 6.13469 12.2694 9.52278 9.52278 12.2694 6.13469 12.2694 2.74659 12.2694 4.11236e-06 9.52278 4.11236e-06 6.13469 4.11236e-06 2.74659 2.74659 4.11236e-06 6.13469 4.11236e-06Z" fill="#000000" fill-opacity="0.82" transform="matrix(1 0 0 1.00179 -64.4577 19.6313)"/></g></g></g></g><g clip-path="url(#clip17)"><g clip-path="url(#clip18)"><text fill="#000000" fill-opacity="0.82" font-family="Microsoft YaHei,Microsoft YaHei_MSFontService,sans-serif" font-weight="700" font-size="40" transform="matrix(3.4396 0 0 3.43957 1243.96 429)">温度</text><path d="M141.022 0C160.019-1.22198e-14 175.418 15.3995 175.418 34.3957L175.418 141.022C175.418 160.019 160.019 175.418 141.022 175.418L34.3957 175.418C15.3995 175.418 0 160.019 0 141.022L0 34.3957C-6.1099e-15 15.3995 15.3995-6.1099e-15 34.3957-1.22198e-14Z" fill="#000000" fill-opacity="0.82" transform="matrix(1.00001 0 0 1 1051.34 295.309)"/><path d="M8157.94 1780.71 8157.94 1747.25 8114.15 1710.67 8068.64 1747.25 8068.64 1814.17 8157.94 1814.17" stroke="#FFFFFF" stroke-width="17.1978" stroke-linecap="square" stroke-linejoin="round" fill="#000000" fill-opacity="0.82" transform="matrix(1.00001 0 0 1 -6971.88 -1382.99)"/><path d="M12.2345 0C18.9915 0 24.4691 5.47758 24.4691 12.2345 24.4691 18.9915 18.9915 24.4691 12.2345 24.4691 5.47758 24.4691-2.68979e-07 18.9915-2.68979e-07 12.2345-2.68979e-07 5.47758 5.47758-2.68979e-07 12.2345-2.68979e-07Z" fill="#000000" fill-opacity="0.82" transform="matrix(1.00001 0 0 1 1085.74 319.355)"/><path d="M12.2334 8.20059e-06C18.9897 8.20059e-06 24.4668 5.47707 24.4668 12.2334 24.4668 18.9897 18.9897 24.4668 12.2334 24.4668 5.47707 24.4668 8.20059e-06 18.9897 8.20059e-06 12.2334 8.20059e-06 5.47707 5.47707 8.20059e-06 12.2334 8.20059e-06Z" fill="#000000" fill-opacity="0.82" transform="matrix(1.00001 0 0 1 1085.74 319.355)"/></g></g></g></svg>